<?xml version="1.0" encoding="utf-8"?>
<!-- Generator: Adobe Illustrator 16.0.0, SVG Export Plug-In . SVG Version: 6.00 Build 0)  -->
<!DOCTYPE svg PUBLIC "-//W3C//DTD SVG 1.1//EN" "http://www.w3.org/Graphics/SVG/1.1/DTD/svg11.dtd">
<svg version="1.1" id="Capa_1" xmlns="http://www.w3.org/2000/svg" xmlns:xlink="http://www.w3.org/1999/xlink" x="0px" y="0px"
	 width="1024px" height="792px" viewBox="0 0 1024 792" enable-background="new 0 0 1024 792" xml:space="preserve">
<g>
	<path fill="#FFFFFF" d="M361.659,244.536c7.017-5.963,7.87-16.487,1.909-23.504c-17.468-20.547-27.086-46.739-27.086-73.748
		c0-62.824,51.113-113.937,113.938-113.937c62.823,0,113.937,51.113,113.937,113.937c0,27.036-9.635,53.248-27.125,73.801
		c-5.97,7.011-5.122,17.538,1.892,23.504c3.138,2.671,6.979,3.977,10.8,3.977c4.719,0,9.409-1.993,12.705-5.867
		c22.62-26.581,35.076-60.467,35.076-95.415C597.703,66.069,531.633,0,450.419,0c-81.215,0-147.285,66.069-147.285,147.284
		c0,34.912,12.438,68.773,35.021,95.346C344.121,249.646,354.637,250.497,361.659,244.536z"/>
	<path fill="#FFFFFF" d="M449.99,114.496c36.76,0,66.173,22.523,75.901,55.243c2.115-7.12,3.269-14.648,3.269-22.454
		c0-43.488-35.251-78.741-78.742-78.741c-43.484,0-78.738,35.253-78.738,78.741c0,7.289,1.012,14.339,2.865,21.04
		C384.699,136.38,413.77,114.496,449.99,114.496z"/>
	<path fill="#FFFFFF" d="M766.857,472.021c-10.474-62.393-54.459-72.363-75.126-73.536c-6.509-0.369-12.55-3.668-16.121-9.12
		c-14.973-22.857-35.039-28.901-52.083-28.901c-12.241,0-22.924,3.118-29.037,5.369c-0.764,0.283-1.554,0.417-2.326,0.417
		c-2.418,0-4.727-1.307-6.011-3.508c-15.206-26.086-36.826-32.816-55.084-32.816c-10.627,0-20.111,2.279-26.533,4.347
		c-0.67,0.214-2.124,0.316-2.782,0.316c-3.49,0-7.328-2.862-7.328-6.603V193.84c0-30.666-22.854-45.997-45.853-45.997
		s-45.853,15.332-45.853,45.997v235.966c0,13.864-10.591,22.438-22.004,22.438c-6.933,0-13.614-3.162-18.208-10.221l-22.057-34.129
		c-9.749-16.084-23.832-22.754-37.863-22.757c-31.713-0.002-62.732,34.064-40.695,70.43l173.659,332.618
		c1.134,2.173,3.404,3.815,5.858,3.815h243.872c3.481,0,6.361-2.987,6.572-6.461l6.103-99.531c0.069-1.147,0.45-2.334,1.084-3.296
		C759.579,591.023,776.911,531.93,766.857,472.021z"/>
</g>
</svg>
